<svg xmlns="http://www.w3.org/2000/svg" width="41.178" height="41.414" viewBox="0 0 41.178 41.414">
  <g id="email_ico" transform="translate(-66 -142.91)">
    <path id="패스_149" data-name="패스 149" d="M73.791,74.065a9.188,9.188,0,0,1-9.162,9.214H41.775a9.188,9.188,0,0,1-9.162-9.214V51.079a9.188,9.188,0,0,1,9.162-9.214H64.629a9.188,9.188,0,0,1,9.162,9.214Z" transform="translate(33.387 101.045)" fill="#39bda2"/>
    <path id="패스_150" data-name="패스 150" d="M95.542,153.91H76.22A3.224,3.224,0,0,0,73,157.13v12.076a3.224,3.224,0,0,0,3.22,3.22H95.542a3.224,3.224,0,0,0,3.22-3.22V157.13A3.224,3.224,0,0,0,95.542,153.91Zm1.61,15.3a1.612,1.612,0,0,1-1.61,1.61H76.22a1.612,1.612,0,0,1-1.61-1.61V157.13a1.611,1.611,0,0,1,1.61-1.61H95.542a1.612,1.612,0,0,1,1.61,1.61Z" transform="translate(0.238 0.89)" fill="#fff"/>
    <path id="패스_151" data-name="패스 151" d="M101.382,167.061l-8.346,6.828-8.346-6.828a.805.805,0,1,0-1.02,1.246l8.856,7.246a.806.806,0,0,0,1.02,0l8.856-7.246a.805.805,0,0,0-1.02-1.246Z" transform="translate(-6.917 -8.054)" fill="#fff"/>
  </g>
</svg>
