<svg xmlns="http://www.w3.org/2000/svg" width="8.205" height="12.765" viewBox="0 0 8.205 12.765">
  <path id="guide_ico" d="M3.48-2.7a4.215,4.215,0,0,1,.338-1.815A3.672,3.672,0,0,1,4.98-5.835a6.864,6.864,0,0,0,1.05-.952,1.362,1.362,0,0,0,.315-.892,1.1,1.1,0,0,0-.39-.892A1.672,1.672,0,0,0,4.86-8.9a1.5,1.5,0,0,0-1.133.427,1.445,1.445,0,0,0-.412,1.043H.705a3.6,3.6,0,0,1,.533-1.928,3.742,3.742,0,0,1,1.47-1.358,4.508,4.508,0,0,1,2.138-.495,4.917,4.917,0,0,1,2.19.45A3.246,3.246,0,0,1,8.43-9.5,3.481,3.481,0,0,1,8.91-7.68,3.409,3.409,0,0,1,7.4-4.935,5.059,5.059,0,0,0,6.263-3.81,2.013,2.013,0,0,0,5.955-2.7ZM4.8,1.56a1.559,1.559,0,0,1-1.14-.442A1.52,1.52,0,0,1,3.21-.015a1.545,1.545,0,0,1,.45-1.14,1.545,1.545,0,0,1,1.14-.45,1.545,1.545,0,0,1,1.14.45,1.545,1.545,0,0,1,.45,1.14,1.52,1.52,0,0,1-.45,1.133A1.559,1.559,0,0,1,4.8,1.56Z" transform="translate(-0.705 11.205)" fill="#39bda2"/>
</svg>
